<svg width="80" height="80" viewBox="0 0 80 80" fill="none" xmlns="http://www.w3.org/2000/svg">
<path fill-rule="evenodd" clip-rule="evenodd" d="M32.5 13C42.1683 13 50.1913 20.0365 51.7314 29.2676C60.9631 30.8073 68 38.8313 68 48.5C68 51.9451 67.1036 55.1828 65.5342 57.9932L67.5049 65.3555C67.9086 66.8631 66.5292 68.2429 65.0215 67.8389L57.4717 65.8145C54.7848 67.2094 51.7338 68 48.5 68C38.831 68 30.8069 60.9625 29.2676 51.7305C27.0918 51.3672 25.0375 50.6462 23.1689 49.626L14.8125 51.8652C14.007 52.0811 13.2697 51.3445 13.4854 50.5391L15.6758 42.3633C13.9757 39.4696 13 36.0988 13 32.5C13 21.7304 21.7304 13 32.5 13ZM51.9648 31.3428C51.9873 31.7257 52 32.1115 52 32.5C52 43.2696 43.2696 52 32.5 52C32.1115 52 31.7257 51.9873 31.3428 51.9648C32.9506 59.9702 40.0212 66 48.5 66C51.5351 66 54.3868 65.2276 56.873 63.8701L57.2246 63.6777L57.6113 63.7822L65.54 65.9062C65.5476 65.9082 65.5527 65.9082 65.5527 65.9082C65.5527 65.9082 65.56 65.9058 65.5664 65.8994C65.5727 65.893 65.5752 65.8848 65.5752 65.8848C65.5752 65.8848 65.5753 65.8807 65.5732 65.873L63.3877 57.7119L63.5996 57.3506C65.1247 54.7546 66 51.7311 66 48.5C66 40.0212 59.9702 32.9506 51.9648 31.3428ZM31.4922 39C30.6682 39.0004 30.0002 39.672 30 40.5C30.0002 41.328 30.6682 41.9996 31.4922 42H31.5068C32.3311 42 32.9998 41.3283 33 40.5C32.9998 39.6717 32.3311 39 31.5068 39H31.4922ZM33.4805 23.0928C31.9355 22.8339 30.3466 23.1187 28.9951 23.8955C27.6432 24.6728 26.6142 25.8937 26.0938 27.3408C25.7902 28.1865 26.2451 29.1144 27.1094 29.4121C27.9742 29.7095 28.9223 29.263 29.2266 28.417C29.4868 27.694 30.0003 27.0838 30.6758 26.6953C31.3516 26.3068 32.1473 26.1645 32.9199 26.2939C33.6926 26.4236 34.3945 26.8177 34.8994 27.4043C35.4041 27.991 35.6808 28.7342 35.6797 29.501V29.5039C35.6792 30.2655 35.073 31.0603 33.9287 31.8066C33.407 32.1468 32.8726 32.4088 32.4629 32.5869C32.2607 32.6748 32.0933 32.7405 31.9814 32.7822C31.9265 32.8027 31.8838 32.8173 31.8584 32.8262C31.8473 32.83 31.8384 32.8325 31.834 32.834L31.8301 32.8359V32.834C30.9628 33.1188 30.4945 34.0392 30.7832 34.8887C31.0733 35.7391 32.0143 36.1991 32.8838 35.916H32.8857L32.8887 35.9141C32.8887 35.9141 32.8934 35.9137 32.8955 35.9131C32.9002 35.9115 32.9062 35.9086 32.9131 35.9062C32.9275 35.9014 32.9466 35.8938 32.9697 35.8857C33.017 35.8693 33.0831 35.8462 33.1631 35.8164C33.3234 35.7567 33.5473 35.6695 33.8115 35.5547C34.3355 35.3269 35.0476 34.9802 35.7705 34.5088C37.0319 33.6861 38.7668 32.1911 38.9785 29.959L39 29.5039C39.0018 27.9705 38.448 26.4847 37.4385 25.3115C36.4286 24.1385 35.0257 23.3521 33.4805 23.0928Z" fill="black"/>
</svg>
