<svg width="80" height="80" viewBox="0 0 80 80" fill="none" xmlns="http://www.w3.org/2000/svg">
<path fill-rule="evenodd" clip-rule="evenodd" d="M47.3931 7C51.6363 7.00008 55.7061 8.66768 58.7066 11.6367C61.7071 14.606 63.393 18.6339 63.3931 22.833C63.3931 24.1909 63.1994 25.5176 62.8609 26.8018C66.2943 30.5401 68.3931 35.5241 68.3931 41C68.3931 52.5978 58.9908 61.9997 47.3931 62C42.6771 62 38.3223 60.4436 34.8169 57.8184L33.3843 59.25C34.0813 60.4035 33.9343 61.9231 32.939 62.9189L22.4038 73.4541C21.2323 74.6256 19.3322 74.6257 18.1607 73.4541L14.3941 69.6875C13.223 68.5159 13.2227 66.6158 14.3941 65.4443L24.9292 54.9102C25.924 53.9156 27.4422 53.7684 28.5952 54.4629L30.1177 52.9414C27.7698 49.5508 26.3931 45.4351 26.3931 41C26.3931 35.5243 28.4902 30.54 31.9234 26.8018C31.5848 25.5177 31.3931 24.1908 31.3931 22.833C31.3932 18.6339 33.0781 14.606 36.0786 11.6367C39.0792 8.66749 43.1497 7 47.3931 7ZM62.1265 29.0068C61.846 29.7053 61.5267 30.3879 61.1773 31.0527C63.1991 33.8497 64.3931 37.285 64.3931 41C64.3931 50.3887 56.7817 57.9997 47.3931 58C38.0042 58 30.3931 50.3888 30.3931 41C30.3931 37.2849 31.585 33.8487 33.607 31.0518C33.2577 30.3872 32.9381 29.705 32.6577 29.0068C29.9922 32.2776 28.3931 36.4516 28.3931 41C28.3931 45.2985 29.8196 49.2612 32.2251 52.4443C32.5255 52.8423 32.4867 53.4012 32.1343 53.7539L30.0747 55.8125L32.0347 57.7725L34.0298 55.7783L34.1001 55.7139C34.4646 55.4128 34.997 55.407 35.3696 55.7119C38.6453 58.3922 42.8303 60 47.3931 60C57.8862 59.9997 66.3931 51.4932 66.3931 41C66.3931 36.4514 64.7923 32.2777 62.1265 29.0068ZM60.0611 32.9688C58.7622 35.0004 57.2329 36.8248 55.7534 38.3701C53.8891 40.3175 52.0303 41.9019 50.6392 42.998C49.9429 43.5467 49.3602 43.9764 48.9487 44.2705C48.7435 44.4172 48.5799 44.5306 48.4663 44.6084C48.4099 44.6471 48.3646 44.6773 48.3335 44.6982C48.3179 44.7087 48.3043 44.7178 48.2954 44.7236C48.2911 44.7265 48.2847 44.7314 48.2847 44.7314L48.2818 44.7324C48.2818 44.7324 48.2797 44.729 48.2769 44.7246L48.2798 44.7344C47.7425 45.0886 47.0426 45.0887 46.5054 44.7344L46.5034 44.7324L46.5005 44.7314C46.5005 44.7314 46.4941 44.7265 46.4898 44.7236C46.4809 44.7178 46.4673 44.7087 46.4517 44.6982C46.4206 44.6773 46.3752 44.647 46.3189 44.6084C46.2053 44.5305 46.0416 44.4172 45.8364 44.2705C45.4249 43.9764 44.8424 43.5468 44.146 42.998C42.7549 41.9018 40.8962 40.3176 39.0318 38.3701C37.5522 36.8246 36.0221 35.0006 34.7232 32.9688C33.2481 35.2908 32.3931 38.0453 32.3931 41C32.3931 49.2843 39.1088 56 47.3931 56C55.6771 55.9997 62.3931 49.2841 62.3931 41C62.3931 38.045 61.5366 35.2907 60.0611 32.9688ZM47.3931 16.5C43.8586 16.5 40.9929 19.3354 40.9927 22.833C40.9927 26.3308 43.8585 29.167 47.3931 29.167C50.9276 29.1668 53.7925 26.3307 53.7925 22.833C53.7923 19.3355 50.9275 16.5002 47.3931 16.5Z" fill="black"/>
</svg>
