<svg width="80" height="80" viewBox="0 0 80 80" fill="none" xmlns="http://www.w3.org/2000/svg">
<path d="M39 23C39 24.3867 39.3139 25.6999 39.874 26.873C34.8274 29.5645 31.3926 34.8811 31.3926 41C31.3926 49.8366 38.556 57 47.3926 57C56.2291 57 63.3926 49.8366 63.3926 41C63.3926 35.2658 60.3755 30.237 55.8428 27.4121C56.5091 26.2303 56.9178 24.8842 56.9883 23.4482C63.1885 26.8452 67.3926 33.4315 67.3926 41C67.3926 52.0457 58.4383 61 47.3926 61C42.5903 61 38.184 59.3065 34.7363 56.4854L18.9082 72.3145L15.5342 68.9404L31.4268 53.0469C28.8946 49.6962 27.3926 45.5236 27.3926 41C27.3926 32.9501 32.1487 26.0117 39.0039 22.8398C39.003 22.8931 39 22.9465 39 23Z" fill="#2E665E" fill-opacity="0.4"/>
<path fill-rule="evenodd" clip-rule="evenodd" d="M47.3926 7C51.636 7 55.7061 8.6678 58.7066 11.6371C61.7072 14.6065 63.3926 18.6341 63.3926 22.8333C63.3926 29.0114 59.4172 34.5429 55.7535 38.3698C53.8891 40.3173 52.0306 41.9014 50.6395 42.9977C49.9429 43.5465 49.3604 43.9761 48.9488 44.2702C48.7433 44.4171 48.5796 44.531 48.466 44.6088C48.4094 44.6476 48.3643 44.6776 48.3332 44.6985C48.3176 44.709 48.3045 44.7174 48.2957 44.7233C48.2914 44.7261 48.2848 44.731 48.2848 44.731L48.2816 44.7325C48.2816 44.7325 48.2802 44.7298 48.277 44.7248L48.2801 44.7341C47.7426 45.0886 47.0425 45.0886 46.5051 44.7341L46.5035 44.7325L46.5004 44.731C46.5004 44.731 46.4937 44.7261 46.4895 44.7233C46.4806 44.7174 46.4675 44.709 46.452 44.6985C46.4208 44.6776 46.3757 44.6476 46.3191 44.6088C46.2055 44.531 46.0419 44.4171 45.8363 44.2702C45.4248 43.9761 44.8422 43.5465 44.1457 42.9977C42.7546 41.9014 40.8961 40.3173 39.0316 38.3698C35.368 34.5429 31.3926 29.0114 31.3926 22.8333C31.3926 18.6341 33.0779 14.6065 36.0785 11.6371C39.0791 8.6678 43.1491 7 47.3926 7ZM47.3926 16.5C43.858 16.5 40.9926 19.3355 40.9926 22.8333C40.9926 26.3312 43.858 29.1667 47.3926 29.1667C50.9272 29.1667 53.7926 26.3312 53.7926 22.8333C53.7926 19.3355 50.9272 16.5 47.3926 16.5Z" fill="#2E665E"/>
<path d="M24.928 54.9106C26.0996 53.7393 27.9997 53.7391 29.1712 54.9106L32.9378 58.6772C34.1092 59.8487 34.109 61.7478 32.9378 62.9194L22.4026 73.4546C21.231 74.6258 19.3319 74.626 18.1604 73.4546L14.3938 69.688C13.2222 68.5164 13.2222 66.6164 14.3938 65.4448L24.928 54.9106Z" fill="#2E665E"/>
</svg>
