<svg width="80" height="80" viewBox="0 0 80 80" fill="none" xmlns="http://www.w3.org/2000/svg">
<path fill-rule="evenodd" clip-rule="evenodd" d="M62 23C63.1046 23 64 23.8954 64 25V53C64 54.1046 63.1046 55 62 55H31L22.707 63.293C22.0771 63.9228 21.0001 63.4767 21 62.5859V55H18C16.8954 55 16 54.1046 16 53V25C16 23.8954 16.8954 23 18 23H62ZM25.5 42C24.6716 42 24 42.6716 24 43.5C24 44.3284 24.6716 45 25.5 45H54.5C55.3284 45 56 44.3284 56 43.5C56 42.6716 55.3284 42 54.5 42H25.5ZM25.5 33C24.6716 33 24 33.6716 24 34.5C24 35.3284 24.6716 36 25.5 36H42.5C43.3284 36 44 35.3284 44 34.5C44 33.6716 43.3284 33 42.5 33H25.5Z" fill="#2E665E" fill-opacity="0.4"/>
<path d="M51.2518 31.1844C51.2928 30.9978 51.3864 30.8268 51.5215 30.6917L68.5061 13.7071C68.8966 13.3166 69.5298 13.3166 69.9203 13.7071L72.7487 16.5355C73.1393 16.9261 73.1393 17.5592 72.7487 17.9497L55.7641 34.9344C55.629 35.0695 55.458 35.163 55.2714 35.204L51.6475 35.9995C50.9348 36.156 50.2999 35.5211 50.4563 34.8084L51.2518 31.1844Z" fill="#2E665E"/>
</svg>
