<svg width="80" height="80" viewBox="0 0 80 80" fill="none" xmlns="http://www.w3.org/2000/svg">
<path d="M55 43.0001C55.5523 43.0001 56 43.4479 56 44.0001C55.9999 44.5524 55.5522 45.0001 55 45.0001H25C24.4478 45.0001 24.0001 44.5524 24 44.0001C24 43.4479 24.4477 43.0001 25 43.0001H55Z" fill="black"/>
<path d="M43 35.0001C43.5523 35.0001 44 35.4479 44 36.0001C43.9999 36.5524 43.5522 37.0001 43 37.0001H25C24.4478 37.0001 24.0001 36.5524 24 36.0001C24 35.4479 24.4477 35.0001 25 35.0001H43Z" fill="black"/>
<path fill-rule="evenodd" clip-rule="evenodd" d="M68.5059 13.7072C68.8964 13.3167 69.5294 13.3167 69.9199 13.7072L72.749 16.5353C73.1393 16.9257 73.1391 17.5588 72.749 17.9494L65 25.6984V53.0001C64.9999 54.6569 63.6568 56.0001 62 56.0001H31.4141L23.4141 64.0001C22.1542 65.2596 20.0004 64.3675 20 62.5861V56.0001H18C16.3432 56.0001 15.0001 54.6569 15 53.0001V25.0001C15 23.3433 16.3431 22.0001 18 22.0001H60.2129L68.5059 13.7072ZM18 24.0001C17.4477 24.0001 17 24.4479 17 25.0001V53.0001C17.0001 53.5524 17.4478 54.0001 18 54.0001H21C21.5523 54.0001 22 54.4479 22 55.0001V62.5861L30.293 54.2931L30.3662 54.2267C30.5442 54.0809 30.7679 54.0001 31 54.0001H62C62.5522 54.0001 62.9999 53.5524 63 53.0001V27.6984L55.7637 34.9347C55.6287 35.0696 55.4579 35.1633 55.2715 35.2042L51.6475 35.9992C50.9349 36.1556 50.2999 35.5213 50.4561 34.8087L51.252 31.1847C51.2929 30.9981 51.3864 30.8267 51.5215 30.6916L58.2129 24.0001H18Z" fill="black"/>
</svg>
