<svg width="24" height="24" viewBox="0 0 24 24" fill="none" xmlns="http://www.w3.org/2000/svg">
<path fill-rule="evenodd" clip-rule="evenodd" d="M12 0C14.6522 0 17.1959 1.05335 19.0713 2.92871C20.9467 4.80407 22 7.34784 22 10C22 13.9019 19.5154 17.3955 17.2256 19.8125C16.0603 21.0425 14.8988 22.043 14.0293 22.7354C13.594 23.082 13.2299 23.3533 12.9727 23.5391C12.8442 23.6318 12.7419 23.7037 12.6709 23.7529C12.6355 23.7774 12.6073 23.7964 12.5879 23.8096C12.5782 23.8162 12.57 23.8215 12.5645 23.8252C12.5618 23.827 12.5576 23.8301 12.5576 23.8301L12.5557 23.8311C12.5557 23.8311 12.5548 23.8293 12.5527 23.8262L12.5547 23.832C12.2188 24.056 11.7812 24.056 11.4453 23.832L11.4443 23.8311L11.4424 23.8301C11.4424 23.8301 11.4382 23.827 11.4355 23.8252C11.43 23.8215 11.4218 23.8162 11.4121 23.8096C11.3927 23.7964 11.3645 23.7774 11.3291 23.7529C11.2581 23.7037 11.1558 23.6318 11.0273 23.5391C10.7701 23.3533 10.406 23.082 9.9707 22.7354C9.10124 22.043 7.93969 21.0425 6.77441 19.8125C4.48463 17.3955 2 13.9019 2 10C2 7.34784 3.05335 4.80407 4.92871 2.92871C6.80407 1.05335 9.34784 0 12 0ZM12 6C9.79086 6 8 7.79086 8 10C8 12.2091 9.79086 14 12 14C14.2091 14 16 12.2091 16 10C16 7.79086 14.2091 6 12 6Z" fill="black"/>
</svg>
