<svg width="24" height="24" viewBox="0 0 24 24" fill="none" xmlns="http://www.w3.org/2000/svg">
<path d="M21.6698 1.05548C22.0321 0.929074 22.4355 1.02139 22.7069 1.29279C22.9782 1.56424 23.0707 1.96759 22.9442 2.3299L15.9442 22.3299C15.8088 22.7166 15.4502 22.9818 15.0409 22.9988C14.6313 23.0156 14.2524 22.7807 14.0858 22.4061L10.8827 15.2C12.1617 13.2735 13.4416 11.3473 14.7206 9.42072C14.7818 9.32807 14.6716 9.21785 14.579 9.27912C12.6523 10.5581 10.7253 11.8369 8.79869 13.116L1.59361 9.91388C1.21895 9.74737 0.984147 9.36846 1.00083 8.95881C1.01775 8.54934 1.28294 8.19088 1.66978 8.05548L21.6698 1.05548Z" fill="black"/>
</svg>
