<svg width="24" height="24" viewBox="0 0 24 24" fill="none" xmlns="http://www.w3.org/2000/svg">
<path d="M11.1702 11.2362C12.9392 11.1473 14.3985 11.2355 15.7839 12.4772C17.1984 13.6756 17.4042 15.3808 17.6006 17.1081C17.6627 17.6534 18.0796 19.3597 17.6967 19.6987C16.5177 20.7422 14.3637 20.9151 12.8729 20.982C11.0608 21.0515 8.01184 20.9691 6.44845 19.8373C6.26844 19.7069 6.13125 19.5133 6.13233 19.2901C6.1348 18.7849 6.25706 18.0259 6.34241 17.5269C6.49377 16.6417 6.57908 15.3349 6.8616 14.5186C7.05972 13.9496 7.35917 13.4212 7.74593 12.9602C8.64313 11.8952 9.79887 11.3528 11.1702 11.2362Z" fill="black"/>
<path d="M18.3859 11.2362C19.1606 11.2014 19.8479 11.3304 20.5447 11.684C21.5342 12.1866 22.2842 13.0631 22.6295 14.1209C22.714 14.3799 22.7838 14.6671 22.8186 14.9313C22.9342 15.8085 23.3134 16.3594 22.4384 16.9756C21.9318 17.3324 21.5796 17.4644 20.9979 17.6473C20.5138 17.7607 19.25 17.9876 18.7921 17.8964C18.7129 17.8235 18.6871 17.4946 18.669 17.3833C18.5371 16.5713 18.4698 15.6987 18.3009 14.8971C18.2117 14.4661 18.0737 14.0467 17.8897 13.647C17.7365 13.3144 17.5524 12.9969 17.3395 12.6991C17.247 12.5703 16.6054 11.8142 16.5982 11.7774C16.7533 11.5121 18.075 11.261 18.3859 11.2362Z" fill="black"/>
<path d="M5.07993 11.2362C6.01771 11.1896 6.61815 11.3695 7.44082 11.7794C6.79354 12.4428 6.32143 13.0762 5.97827 13.9513C5.85652 14.2626 5.76067 14.5836 5.69316 14.9112C5.62258 15.2667 5.30753 17.761 5.21198 17.8833C4.9585 17.9762 3.83535 17.812 3.52035 17.7568C2.83765 17.6676 2.00239 17.3327 1.45958 16.9013C0.789107 16.3823 1.0292 16.0379 1.10044 15.3861C1.3462 13.1348 2.70599 11.4484 5.07993 11.2362Z" fill="black"/>
<path d="M18.4539 5.06596C19.1091 5.04215 19.6522 5.1599 20.2076 5.52684C20.829 5.93578 21.2631 6.57582 21.4141 7.30611C21.5668 8.04728 21.4185 8.81897 21.0019 9.44987C20.6117 10.0381 19.9622 10.503 19.2692 10.6437C19.0138 10.7084 18.7498 10.7322 18.487 10.714C17.5674 10.6504 16.9666 10.2416 16.3832 9.56634C16.4311 9.41103 16.6787 8.9391 16.7553 8.74298C17.1066 7.84312 17.1952 6.99513 17.0474 6.03994C17.0299 5.92705 16.9797 5.64279 17.0544 5.57102C17.387 5.25376 18.0333 5.11089 18.4539 5.06596Z" fill="black"/>
<path d="M5.13496 5.06697C5.80807 5.03723 6.49456 5.1942 7.02566 5.62826C6.76361 6.735 6.86571 7.89762 7.31777 8.94079C7.56176 9.49893 7.79493 9.4453 7.26275 9.94188C6.64686 10.5165 5.99728 10.7359 5.16397 10.717C4.56305 10.6563 4.04405 10.467 3.56937 10.0865C2.98696 9.61537 2.61615 8.92968 2.54098 8.18269C2.46429 7.43462 2.685 6.68648 3.15421 6.10019C3.67732 5.45018 4.32065 5.15335 5.13496 5.06697Z" fill="black"/>
<path d="M11.9355 3.00053C14.0529 2.96578 15.7989 4.65676 15.84 6.78197C15.881 8.9071 14.2017 10.6653 12.0846 10.713C9.95824 10.7609 8.19739 9.06594 8.15609 6.93158C8.11477 4.79716 9.80891 3.03547 11.9355 3.00053Z" fill="black"/>
</svg>
