<svg width="24" height="24" viewBox="0 0 24 24" fill="none" xmlns="http://www.w3.org/2000/svg">
<path d="M21 11.6391C21.0035 12.9805 20.6901 14.3038 20.0853 15.5012C19.3681 16.936 18.2657 18.1429 16.9015 18.9866C15.5372 19.8303 13.965 20.2775 12.3609 20.2781C11.0195 20.2816 9.69617 19.9682 8.49879 19.3634L3.66976 20.973C3.27248 21.1055 2.89453 20.7275 3.02696 20.3302L4.63663 15.5012C4.03183 14.3038 3.71842 12.9805 3.72191 11.6391C3.72253 10.035 4.16973 8.46279 5.01342 7.09854C5.8571 5.73428 7.06395 4.63186 8.49879 3.91475C9.69617 3.30995 11.0195 2.99653 12.3609 3.00003H12.8691C14.9876 3.1169 16.9885 4.01106 18.4887 5.5113C19.9889 7.01154 20.8831 9.01244 21 11.1309V11.6391Z" fill="black"/>
</svg>
