<svg width="24" height="24" viewBox="0 0 24 24" fill="none" xmlns="http://www.w3.org/2000/svg">
<g clip-path="url(#clip0_399_126)">
<path d="M14.8369 0.75C15.0531 0.75 15.2619 0.825185 15.4277 0.960938L15.4961 1.02246L17.5625 3.0918L17.6221 3.15625C17.7342 3.29051 17.8064 3.45367 17.8301 3.62695L17.8379 3.71387L17.8369 3.80176C17.8263 4.00553 17.7487 4.20094 17.6152 4.35742L17.6143 4.35938C17.3784 4.63449 17.2548 4.98845 17.2686 5.35059C17.2824 5.71235 17.4319 6.05619 17.6875 6.3125L17.7881 6.40332C18.0309 6.6036 18.3343 6.71985 18.6514 6.73145C19.0136 6.74461 19.3678 6.62018 19.6426 6.38379L19.6445 6.38184C19.8009 6.24843 19.9965 6.17085 20.2002 6.16016H20.2881L20.375 6.16797C20.5762 6.19543 20.7637 6.28781 20.9082 6.43262L22.9766 8.50098C23.1513 8.67578 23.25 8.91298 23.25 9.16016C23.25 9.40736 23.1513 9.64451 22.9766 9.81934L19.6797 13.1162C19.6188 13.1771 19.5527 13.2317 19.4844 13.2832L18.6367 12.4346C18.3048 12.1026 17.7665 12.1026 17.4346 12.4346C17.1026 12.7665 17.1026 13.3048 17.4346 13.6367L18.2969 14.498C18.2901 14.505 18.2852 14.5137 18.2783 14.5205L9.82227 22.9766C9.64744 23.1513 9.40931 23.25 9.16211 23.25C8.91508 23.2499 8.67862 23.1512 8.50391 22.9766L6.43457 20.9082C6.26949 20.7431 6.17189 20.5214 6.16211 20.2881C6.15229 20.0534 6.23137 19.8233 6.38379 19.6445L6.38574 19.6426C6.62191 19.3676 6.74604 19.0136 6.73242 18.6514C6.71868 18.289 6.56794 17.9449 6.31152 17.6885C6.05507 17.432 5.71105 17.2813 5.34863 17.2676C4.98636 17.2539 4.63247 17.3781 4.35742 17.6143L4.35547 17.6152C4.1767 17.7677 3.94667 17.8477 3.71191 17.8379C3.47714 17.8281 3.25429 17.7294 3.08887 17.5625L1.02344 15.4961C0.848922 15.3213 0.75 15.0839 0.75 14.8369C0.750098 14.5898 0.848771 14.3525 1.02344 14.1777L9.47852 5.72363C9.48585 5.71631 9.49352 5.70934 9.50098 5.70215L10.3633 6.56543C10.6952 6.89731 11.2335 6.89735 11.5654 6.56543C11.8974 6.23351 11.8973 5.69523 11.5654 5.36328L10.7148 4.5127C10.7659 4.4452 10.8208 4.38041 10.8809 4.32031L14.1777 1.02344C14.3525 0.848779 14.5899 0.750098 14.8369 0.75ZM16.0654 9.86328C15.7336 9.53147 15.1953 9.53158 14.8633 9.86328C14.5315 10.1951 14.5316 10.7334 14.8633 11.0654L15.5059 11.708C15.8377 12.04 16.3759 12.0408 16.708 11.709C17.04 11.3772 17.0397 10.8389 16.708 10.5068L16.0654 9.86328ZM13.4932 7.29199C13.1611 6.96022 12.6228 6.95997 12.291 7.29199C11.9592 7.62408 11.9599 8.16234 12.292 8.49414L12.9346 9.13672C13.2666 9.46836 13.8049 9.46852 14.1367 9.13672C14.4684 8.80474 14.4685 8.26639 14.1367 7.93457L13.4932 7.29199Z" fill="black"/>
</g>
<defs>
<clipPath id="clip0_399_126">
<rect width="24" height="24" fill="white"/>
</clipPath>
</defs>
</svg>
