<svg width="24" height="24" viewBox="0 0 24 24" fill="none" xmlns="http://www.w3.org/2000/svg">
<path fill-rule="evenodd" clip-rule="evenodd" d="M10.9825 0C11.158 0.111716 11.3706 0.217413 11.5557 0.326172C11.8974 0.524977 12.2263 0.745101 12.541 0.984375C14.3158 2.3511 15.5537 4.29888 16.0362 6.48633C16.2716 7.55223 16.3255 8.65057 16.1953 9.73438C16.6291 9.21743 17.0772 8.67692 17.3877 8.07422C18.0313 6.82543 18.8166 7.82987 19.3565 8.48535C20.5813 9.9684 21.3195 11.7925 21.4707 13.71C21.6824 16.2617 20.853 18.7912 19.1709 20.7217C17.7352 22.3851 15.6492 23.5723 13.4717 23.8828C13.3358 23.9023 12.9863 23.945 12.8809 24H11.1651C11.0123 23.9407 10.079 23.8134 9.82229 23.7529C7.3665 23.1689 5.24185 21.6348 3.91507 19.4873C1.62123 15.7691 2.15464 10.9664 5.20804 7.8418C5.83632 7.1914 6.33688 6.89035 7.01858 6.35449C7.70504 5.81702 8.30124 5.1718 8.78323 4.44531C9.35578 3.57841 9.75482 2.6087 9.95804 1.58984C10.0263 1.23753 10.0462 0.884036 10.1172 0.53418C10.174 0.254504 10.3482 0.142682 10.5811 0H10.9825ZM11.4082 12C11.31 12.0595 11.2359 12.1061 11.2119 12.2227C11.182 12.3683 11.1743 12.5154 11.1455 12.6621C11.0599 13.0868 10.8909 13.4912 10.6494 13.8525C10.4463 14.1551 10.1956 14.4236 9.90628 14.6475C9.61877 14.8708 9.40755 14.9965 9.14261 15.2676C7.85539 16.5694 7.63078 18.57 8.59769 20.1191C9.15706 21.0139 10.0525 21.6531 11.0879 21.8965C11.1959 21.9217 11.5899 21.9753 11.6543 22H12.378C12.4226 21.9771 12.5698 21.9593 12.627 21.9512C13.545 21.8217 14.5178 21.3298 15.1231 20.6367C15.8322 19.8324 16.0127 18.8183 15.9991 17.7129C15.9868 16.7207 15.396 15.6165 14.8116 14.917C14.0696 14.0292 12.9827 12.9796 12.2344 12.4102C12.1017 12.3104 11.9625 12.2186 11.8184 12.1357C11.7405 12.0905 11.6511 12.0465 11.5772 12H11.4082Z" fill="black"/>
</svg>
